<?xml version="1.0" encoding="utf-8"?>
<!-- Generator: Adobe Illustrator 16.0.3, SVG Export Plug-In . SVG Version: 6.00 Build 0)  -->
<!DOCTYPE svg PUBLIC "-//W3C//DTD SVG 1.1//EN" "http://www.w3.org/Graphics/SVG/1.1/DTD/svg11.dtd">
<svg version="1.1" id="Vrstva_1" xmlns="http://www.w3.org/2000/svg" xmlns:xlink="http://www.w3.org/1999/xlink" x="0px" y="0px"
	 width="220.5px" height="75px" viewBox="13.083 12.5 220.5 75" enable-background="new 13.083 12.5 220.5 75" xml:space="preserve"
	>
<g>
	<path fill="#FFFFFF" d="M25.096,42.625l-5.474,5.479c-0.505,0.502-0.782,1.15-0.782,1.828c-0.003,0.719,0.296,1.416,0.843,1.961
		l5.408,5.407c0.454,0.451,0.905,0.683,1.337,0.683c0.211,0,1.257-0.084,1.265-1.729l0.048-12.573
		c0.002-0.619-0.152-1.086-0.459-1.394C26.746,41.748,25.87,41.852,25.096,42.625z"/>
	<path fill="#FFFFFF" d="M43.187,25.2c-0.44,0-0.889,0.227-1.337,0.672l-5.432,5.434c-0.95,0.95-1.671,2.674-1.676,4.016
		l0.016,29.371c0,1.291,0.742,3.014,1.729,4.007l5.405,5.401c0.457,0.455,0.91,0.69,1.345,0.69c0.424,0,0.793-0.222,1.014-0.608
		c0.163-0.283,0.246-0.66,0.246-1.115L44.479,26.95C44.479,25.659,43.782,25.2,43.187,25.2z"/>
	<path fill="#FFFFFF" d="M54.049,17.537c-0.456-0.459-0.907-0.691-1.342-0.691c-0.208,0-1.254,0.083-1.257,1.727l0.019,12.561
		c0,1.276,0.747,2.989,1.743,3.99l13.831,13.825c0.531,0.531,0.501,1.535-0.064,2.101l-5.405,5.405
		c-0.56,0.559-1.743,0.67-2.223,0.189l-5.437-5.442c-0.48-0.478-0.926-0.71-1.361-0.71c-0.203,0-1.209,0.08-1.209,1.682
		l0.042,29.249c0,1.649,1.046,1.731,1.257,1.731c0.432,0,0.883-0.229,1.337-0.682L84.626,51.82c1.075-1.073,1.075-2.635-0.003-3.715
		L54.049,17.537z"/>
	<g>
		<path fill="#FFFFFF" d="M102.514,37.346h-5.621c-0.662,0-1.815,0.262-2.141,2.141v19.779c0,0.66,0.262,1.813,2.141,2.139h7.147
			c1.962,0,3.958-0.514,5.999-1.567c3.979-2.634,5.996-6.067,5.996-10.217v-0.416c0-3.099-1.188-5.875-3.507-8.231
			C110.355,38.566,106.984,37.346,102.514,37.346z M111.893,49.341c0,2.224-0.819,4.106-2.458,5.72
			c-1.657,1.369-3.075,2.063-4.214,2.063h-6.187V41.627h5.631c0.94,0,2.044,0.344,3.235,0.998
			C110.587,44.382,111.893,46.578,111.893,49.341z"/>
		<path fill="#FFFFFF" d="M140.986,37.208h-0.275c-0.666,0-1.807,0.288-2.002,2.278l0.002,11.992l0.066,0.776
			c0,0.149-0.074,0.642-0.695,1.882c-1.576,2.104-3.578,3.127-6.115,3.127c-2.151,0-3.95-0.711-5.452-2.129
			c-0.947-1.08-1.429-2.027-1.429-2.81l-0.002-12.902c-0.189-1.999-1.463-2.215-2-2.215h-0.276c-0.665,0-1.804,0.288-2.002,2.278
			v11.658c0,1.674,0.35,3.267,1.081,4.813c2.333,3.614,5.656,5.446,9.873,5.446h0.277c1.127,0,2.4-0.193,3.844-0.598
			c4.72-1.72,7.109-5.086,7.109-10.01l-0.004-11.375C142.796,37.424,141.523,37.208,140.986,37.208z"/>
		<path fill="#FFFFFF" d="M161.492,38.884c-0.566-1.508-1.521-1.829-2.289-1.829c-0.002,0-0.005,0-0.008,0
			c-0.523,0.045-1.029,0.291-1.596,0.825c-0.139,0.179-0.451,0.599-8.801,17.019c-2.025,3.733-2.025,4.037-2.025,4.281v0.276
			c0,0.573,0.23,1.588,1.934,1.933h0.275c0.512,0,1.021-0.254,1.523-0.755l0.133-0.182c1.199-2.456,2.055-4.121,2.545-4.962h12.123
			l1.494,2.677c0.51,1.383,1.35,3.222,2.723,3.222h0.277c0.576,0,1.594-0.23,1.934-1.933V59.04l-0.049-0.254
			C171.602,58.572,171.339,57.928,161.492,38.884z M163.232,51.348H155.3l3.924-7.74L163.232,51.348z"/>
		<path fill="#FFFFFF" d="M191.832,57.124h-12.084l-0.004-17.847c-0.193-1.92-1.334-2.209-1.998-2.209h-0.277
			c-0.536,0-1.811,0.217-2.002,2.279v19.709c0,1.399,0.841,2.256,2.349,2.348h14.054l0.03-0.002
			c1.998-0.197,2.213-1.463,2.213-1.998v-0.278C194.111,58.589,193.896,57.324,191.832,57.124z"/>
		<path fill="#FFFFFF" d="M199.791,37.068h-0.276c-0.535,0-1.806,0.217-2.002,2.279l0.004,19.844
			c0.192,1.996,1.463,2.213,1.998,2.213h0.276c0.537,0,1.806-0.217,2.002-2.279l-0.002-19.844
			C201.596,37.285,200.328,37.068,199.791,37.068z"/>
		<path fill="#FFFFFF" d="M231.16,48.924c0-1.756-0.438-3.625-1.352-5.631c-2.652-4.313-6.279-6.502-10.783-6.502h-0.275
			c-1.756,0-3.625,0.439-5.633,1.352c-4.313,2.652-6.5,6.279-6.5,10.782v0.278c0,1.756,0.439,3.624,1.35,5.632
			c2.652,4.313,6.279,6.501,10.783,6.501h0.275c2.377,0,4.609-0.678,6.646-2.016c1.221,1.437,2.135,2.084,2.932,2.084h0.139
			c0.613,0,1.688-0.241,2.002-2v-0.348c0-0.373-0.154-0.843-1.938-2.695c1.563-2.196,2.354-4.604,2.354-7.158V48.924L231.16,48.924z
			 M222.844,51.434c-0.576,0-1.595,0.231-1.933,1.934v0.348c0,0.389,0.146,0.907,1.711,2.541c-3.065,1.521-5.896,1.133-8.313-0.518
			c-2.39-1.834-3.552-3.993-3.552-6.604c0-1.668,0.498-3.242,1.455-4.65c1.836-2.389,3.998-3.549,6.605-3.549
			c1.691,0,3.225,0.483,4.648,1.455c2.389,1.834,3.551,3.996,3.551,6.605c0,1.451-0.408,2.898-1.213,4.309
			c-1.188-1.307-2.008-1.867-2.686-1.867h-0.275L222.844,51.434L222.844,51.434z"/>
	</g>
</g>
</svg>
