<?xml version="1.0" encoding="utf-8"?>
<!-- Generator: Adobe Illustrator 16.0.3, SVG Export Plug-In . SVG Version: 6.00 Build 0)  -->
<!DOCTYPE svg PUBLIC "-//W3C//DTD SVG 1.1//EN" "http://www.w3.org/Graphics/SVG/1.1/DTD/svg11.dtd">
<svg version="1.1" id="Vrstva_1" xmlns="http://www.w3.org/2000/svg" xmlns:xlink="http://www.w3.org/1999/xlink" x="0px" y="0px"
	 width="215.167px" height="68px" viewBox="17.5 16 215.167 68" enable-background="new 17.5 16 215.167 68" xml:space="preserve">
<g>
	<path fill="#343342" d="M25.096,42.625l-5.474,5.479c-0.505,0.502-0.782,1.15-0.782,1.828c-0.003,0.718,0.296,1.416,0.843,1.96
		l5.408,5.408c0.454,0.451,0.905,0.682,1.337,0.682c0.211,0,1.257-0.084,1.265-1.729l0.048-12.573
		c0.002-0.62-0.152-1.086-0.459-1.394C26.746,41.748,25.87,41.852,25.096,42.625z"/>
	<path fill="#343342" d="M43.187,25.2c-0.44,0-0.889,0.227-1.337,0.672l-5.432,5.434c-0.95,0.95-1.671,2.674-1.676,4.017
		l0.016,29.371c0,1.291,0.742,3.013,1.729,4.006l5.405,5.402c0.457,0.455,0.91,0.69,1.345,0.69c0.424,0,0.793-0.222,1.014-0.608
		c0.163-0.283,0.246-0.66,0.246-1.115L44.479,26.95C44.479,25.659,43.782,25.2,43.187,25.2z"/>
	<path fill="#343342" d="M54.049,17.537c-0.456-0.459-0.907-0.691-1.342-0.691c-0.208,0-1.254,0.083-1.257,1.727l0.019,12.561
		c0,1.276,0.747,2.989,1.743,3.99l13.831,13.825c0.531,0.531,0.501,1.535-0.064,2.101l-5.405,5.405
		c-0.56,0.559-1.743,0.67-2.223,0.189l-5.437-5.442c-0.48-0.478-0.926-0.71-1.361-0.71c-0.203,0-1.209,0.08-1.209,1.682
		l0.042,29.249c0,1.649,1.046,1.731,1.257,1.731c0.432,0,0.883-0.229,1.337-0.682L84.626,51.82c1.075-1.073,1.075-2.634-0.003-3.715
		L54.049,17.537z"/>
	<g>
		<path fill="#343342" d="M102.514,37.346h-5.621c-0.662,0-1.815,0.262-2.141,2.141v19.779c0,0.66,0.262,1.813,2.141,2.139h7.147
			c1.962,0,3.958-0.514,5.998-1.568c3.979-2.634,5.997-6.068,5.997-10.217v-0.416c0-3.099-1.188-5.875-3.507-8.231
			C110.355,38.566,106.984,37.346,102.514,37.346z M111.893,49.341c0,2.224-0.819,4.106-2.458,5.72
			c-1.657,1.369-3.075,2.063-4.214,2.063h-6.187V41.627h5.631c0.94,0,2.044,0.344,3.235,0.998
			C110.587,44.382,111.893,46.578,111.893,49.341z"/>
		<path fill="#343342" d="M140.986,37.208h-0.276c-0.665,0-1.806,0.288-2.002,2.279l0.003,11.992l0.066,0.776
			c0,0.149-0.074,0.642-0.696,1.882c-1.575,2.104-3.577,3.127-6.115,3.127c-2.151,0-3.95-0.711-5.452-2.129
			c-0.947-1.08-1.428-2.027-1.428-2.81l-0.003-12.902c-0.189-1.999-1.462-2.215-1.999-2.215h-0.277
			c-0.665,0-1.804,0.288-2.002,2.279v11.658c0,1.674,0.35,3.266,1.081,4.813c2.333,3.614,5.656,5.446,9.873,5.446h0.277
			c1.127,0,2.401-0.193,3.844-0.598c4.72-1.719,7.11-5.086,7.11-10.009l-0.004-11.375C142.797,37.424,141.523,37.208,140.986,37.208
			z"/>
		<path fill="#343342" d="M161.491,38.884c-0.566-1.508-1.521-1.829-2.288-1.829c-0.002,0-0.005,0-0.008,0
			c-0.523,0.045-1.03,0.291-1.596,0.825c-0.138,0.179-0.451,0.598-8.801,17.019c-2.025,3.733-2.025,4.037-2.025,4.281v0.276
			c0,0.573,0.231,1.588,1.933,1.933h0.276c0.511,0,1.022-0.254,1.524-0.755l0.132-0.182c1.2-2.456,2.055-4.121,2.545-4.962h12.123
			l1.494,2.677c0.51,1.383,1.35,3.222,2.723,3.222h0.277c0.577,0,1.594-0.231,1.934-1.933V59.04l-0.049-0.254
			C171.602,58.572,171.34,57.928,161.491,38.884z M163.232,51.348h-7.932l3.924-7.74L163.232,51.348z"/>
		<path fill="#343342" d="M191.832,57.124h-12.085l-0.003-17.846c-0.194-1.921-1.334-2.209-1.999-2.209h-0.277
			c-0.536,0-1.81,0.216-2.002,2.279v19.708c0,1.4,0.841,2.256,2.349,2.348h14.054l0.03-0.002c1.998-0.197,2.213-1.463,2.213-1.998
			v-0.278C194.111,58.589,193.896,57.324,191.832,57.124z"/>
		<path fill="#343342" d="M199.791,37.069h-0.277c-0.535,0-1.805,0.216-2.002,2.279l0.004,19.843
			c0.193,1.996,1.463,2.213,1.998,2.213h0.277c0.537,0,1.805-0.217,2.002-2.279l-0.003-19.844
			C201.596,37.285,200.328,37.069,199.791,37.069z"/>
		<path fill="#343342" d="M231.16,48.924c0-1.756-0.439-3.625-1.352-5.631c-2.652-4.313-6.279-6.502-10.783-6.502h-0.276
			c-1.756,0-3.624,0.44-5.632,1.351c-4.313,2.653-6.501,6.28-6.501,10.783v0.278c0,1.756,0.44,3.624,1.351,5.632
			c2.652,4.313,6.279,6.501,10.782,6.501h0.276c2.377,0,4.609-0.678,6.646-2.016c1.221,1.437,2.135,2.084,2.932,2.084h0.139
			c0.613,0,1.688-0.241,2.002-2v-0.348c0-0.373-0.155-0.842-1.939-2.695c1.563-2.196,2.355-4.603,2.355-7.158V48.924L231.16,48.924z
			 M222.844,51.434c-0.576,0-1.594,0.231-1.933,1.933v0.348c0,0.388,0.146,0.907,1.711,2.541c-3.065,1.522-5.896,1.132-8.313-0.517
			c-2.39-1.834-3.551-3.994-3.551-6.604c0-1.668,0.497-3.243,1.455-4.65c1.836-2.389,3.998-3.549,6.605-3.549
			c1.691,0,3.225,0.483,4.648,1.455c2.389,1.833,3.551,3.995,3.551,6.605c0,1.452-0.408,2.899-1.213,4.308
			c-1.188-1.306-2.007-1.867-2.685-1.867h-0.276V51.434z"/>
	</g>
</g>
</svg>
