<?xml version="1.0" encoding="utf-8"?>
<!-- Generator: Adobe Illustrator 16.0.3, SVG Export Plug-In . SVG Version: 6.00 Build 0)  -->
<!DOCTYPE svg PUBLIC "-//W3C//DTD SVG 1.1//EN" "http://www.w3.org/Graphics/SVG/1.1/DTD/svg11.dtd">
<svg version="1.1" id="Vrstva_1" xmlns="http://www.w3.org/2000/svg" xmlns:xlink="http://www.w3.org/1999/xlink" x="0px" y="0px"
	 width="170px" height="330px" viewBox="0 0 170 330" enable-background="new 0 0 170 330" xml:space="preserve">
<path fill="#343342" d="M13.338,5.008C11.09,2.744,8.865,1.6,6.723,1.6c-1.026,0-6.183,0.408-6.196,8.512l0.092,61.902
	c0,6.288,3.684,14.732,8.591,19.666l68.164,68.138c2.617,2.618,2.473,7.563-0.316,10.353L50.42,196.807
	c-2.762,2.75-8.59,3.303-10.957,0.934l-26.795-26.82c-2.367-2.355-4.564-3.498-6.709-3.498c-1.001,0-5.959,0.395-5.959,8.287
	l0.21,144.154c0,8.129,5.156,8.537,6.196,8.537c2.131,0,4.354-1.131,6.59-3.367l151.035-151.063
	c5.301-5.287,5.301-12.982-0.014-18.311L13.338,5.008z"/>
</svg>
